<svg viewBox="0 0 128 128" xmlns="http://www.w3.org/2000/svg">
  <defs>
    <linearGradient id="mainGrad" x1="0%" y1="0%" x2="100%" y2="100%">
      <stop offset="0%" style="stop-color:#007BFF;stop-opacity:1" />
      <stop offset="100%" style="stop-color:#00C6FF;stop-opacity:1" />
    </linearGradient>
  </defs>
  
  <path fill="url(#mainGrad)" d="M120.5,60.1l-10.9-1.8c-0.8-3.3-2-6.4-3.5-9.4l7.6-8c1.3-1.4,1.2-3.6-0.2-4.9l-8-7.5c-1.4-1.3-3.6-1.2-4.9,0.2l-7.7,8.2 c-2.9-1.4-6-2.5-9.2-3.2l-1.5-11c-0.3-1.9-1.9-3.3-3.8-3.3h-11c-1.9,0-3.5,1.4-3.8,3.3l-1.5,11c-3.2,0.7-6.3,1.8-9.2,3.2l-7.7-8.2 c-1.3-1.4-3.5-1.5-4.9-0.2l-8,7.5c-1.4,1.3-1.5,3.5-0.2,4.9l7.6,8c-1.5,3-2.7,6.1-3.5,9.4l-10.9,1.8C1.5,60.4,0,62.1,0,64s1.5,3.6,3.4,3.9 l10.9,1.8c0.8,3.3,2,6.4,3.5,9.4l-7.6,8c-1.3,1.4-1.2,3.6,0.2,4.9l8,7.5c1.4,1.3,3.6,1.2,4.9-0.2l7.7-8.2c2.9,1.4,6,2.5,9.2,3.2 l1.5,11c0.3,1.9,1.9,3.3,3.8,3.3h11c1.9,0,3.5-1.4,3.8-3.3l1.5-11c3.2-0.7,6.3-1.8,9.2-3.2l7.7,8.2c1.3,1.4,3.5,1.5,4.9,0.2l8-7.5 c1.4-1.3,1.5-3.5,0.2-4.9l-7.6-8c1.5-3,2.7-6.1,3.5-9.4l10.9-1.8c1.9-0.3,3.4-2,3.4-3.9S122.4,60.4,120.5,60.1z M64,96 c-17.7,0-32-14.3-32-32s14.3-32,32-32s32,14.3,32,32S81.7,96,64,96z"/>
  
  <circle fill="#FFFFFF" cx="64" cy="64" r="28" />
  
  <g fill="#007BFF">
    <circle cx="64" cy="48" r="5" />
    <path d="M78,56h-28c-2.2,0-4,1.8-4,4s1.8,4,4,4h9v12l-6,14c-0.8,1.9,0.1,4.1,2,4.9c1.9,0.8,4.1-0.1,4.9-2l5.1-12.1l5.1,12.1 c0.8,1.9,3,2.8,4.9,2c1.9-0.8,2.8-3,2-4.9l-6-14v-12h9c2.2,0,4-1.8,4-4S80.2,56,78,56z" />
  </g>
</svg>
